<svg width="16" height="17" viewBox="0 0 16 17" fill="none" xmlns="http://www.w3.org/2000/svg">
<path d="M2.66667 1H0.666667C0.298477 1 0 1.29848 0 1.66667V2C0 2.36819 0.298477 2.66667 0.666667 2.66667H2.00793L3.82417 10.3208C4.12178 11.575 5.2271 12.4672 6.50981 12.4991V12.5H11.7249C13.0241 12.5 14.1343 11.5637 14.3534 10.2831L15.1905 5.39156C15.3298 4.57714 14.7025 3.83333 13.8762 3.83333H3.99771L3.47749 1.64093C3.38834 1.26525 3.05279 1 2.66667 1Z" fill="#989898" fill-opacity="0.37"/>
<path d="M6.66667 14.5C6.66667 15.2364 6.06971 15.8333 5.33333 15.8333C4.59695 15.8333 4 15.2364 4 14.5C4 13.7636 4.59695 13.1666 5.33333 13.1666C6.06971 13.1666 6.66667 13.7636 6.66667 14.5Z" fill="#989898" fill-opacity="0.37"/>
<path d="M14 14.5C14 15.2364 13.403 15.8333 12.6666 15.8333C11.9302 15.8333 11.3333 15.2364 11.3333 14.5C11.3333 13.7636 11.9302 13.1666 12.6666 13.1666C13.403 13.1666 14 13.7636 14 14.5Z" fill="#989898" fill-opacity="0.37"/>
</svg>
