<svg width="26" height="21" viewBox="0 0 26 21" fill="none" xmlns="http://www.w3.org/2000/svg">
<path d="M21.7867 2.35326C20.1467 1.59326 18.4 1.03326 16.56 0.713257C16.3333 1.11326 16.0667 1.65992 15.8933 2.09992C13.9467 1.80659 12.0133 1.80659 10.1067 2.09992C9.92001 1.65992 9.65334 1.11326 9.42668 0.713257C7.58668 1.03326 5.84001 1.59326 4.20001 2.35326C0.893345 7.33992 1.16229e-05 12.2066 0.440012 16.9933C2.64001 18.6333 4.76001 19.62 6.85334 20.2733C7.37334 19.5666 7.82668 18.8066 8.22668 18.02C7.46668 17.74 6.74668 17.38 6.06668 16.9666C6.25334 16.8333 6.42668 16.6866 6.60001 16.5533C10.7733 18.5 15.2933 18.5 19.4133 16.5533C19.5867 16.7 19.76 16.8333 19.9467 16.9666C19.2667 17.38 18.5333 17.7266 17.7867 18.02C18.1867 18.8066 18.64 19.5666 19.16 20.2733C21.2533 19.62 23.3867 18.6333 25.5733 16.9933C26.0933 11.4333 24.68 6.61992 21.8133 2.35326H21.7867ZM8.78668 14.06C7.53334 14.06 6.50668 12.9 6.50668 11.4733C6.50668 10.0466 7.50668 8.88663 8.78668 8.88663C10.0667 8.88663 11.08 10.0466 11.0667 11.4733C11.0667 12.8866 10.0667 14.06 8.78668 14.06ZM17.2 14.06C15.9467 14.06 14.92 12.9 14.92 11.4733C14.92 10.0466 15.92 8.88663 17.2 8.88663C18.48 8.88663 19.4933 10.0466 19.48 11.4733C19.48 12.8866 18.48 14.06 17.2 14.06Z" fill="#BABABA"/>
</svg>
