<svg width="22" height="22" viewBox="0 0 22 22" fill="none" xmlns="http://www.w3.org/2000/svg">
<path d="M21.6667 10.5666C21.6417 8.53396 21.0364 6.55074 19.922 4.85056C18.8076 3.15037 17.2307 1.80401 15.3768 0.970051C13.5228 0.136091 11.4692 -0.150736 9.45773 0.143331C7.44631 0.437411 5.56076 1.30013 4.0232 2.62993C2.48563 3.95972 1.36007 5.70118 0.779067 7.64922C0.19808 9.59729 0.18584 11.6708 0.743813 13.6256C1.30179 15.5804 2.40672 17.3349 3.92849 18.6828C5.45025 20.0306 7.32549 20.9156 9.33333 21.2333V13.6733H6.66668V10.5666H9.33333V8.20662C9.2716 7.6579 9.33107 7.10229 9.5076 6.57904C9.68413 6.05578 9.97333 5.57765 10.3548 5.17838C10.7363 4.7791 11.2007 4.46842 11.7153 4.26828C12.23 4.06812 12.7824 3.98336 13.3333 4.02C14.1331 4.03094 14.9309 4.10226 15.72 4.23333V6.9H14.3867C14.1568 6.871 13.9232 6.89404 13.7035 6.96741C13.4836 7.04078 13.2831 7.16261 13.1167 7.32389C12.9503 7.48517 12.8223 7.68178 12.7421 7.89916C12.6619 8.11662 12.6316 8.34929 12.6533 8.57996V10.5933H15.6133L15.1333 13.7H12.6667V21.1666C15.1865 20.7681 17.4801 19.4796 19.1313 17.5348C20.7825 15.59 21.682 13.1178 21.6667 10.5666Z" fill="#BABABA"/>
</svg>
