<svg width="16" height="15" viewBox="0 0 16 15" fill="none" xmlns="http://www.w3.org/2000/svg">
<path d="M15.7314 6.78346L13.3066 4.35858V1.55744C13.3066 1.05096 12.8961 0.640491 12.3889 0.640491C11.8828 0.640491 11.4724 1.05096 11.4724 1.55744V2.52446L9.66688 0.718877C8.77421 -0.173303 7.22217 -0.17172 6.33154 0.720492L0.268439 6.78346C-0.0894796 7.14209 -0.0894796 7.72238 0.268439 8.08046C0.626518 8.43899 1.20793 8.43899 1.56588 8.08046L7.6284 2.01732C7.8259 1.82086 8.174 1.82086 8.37047 2.01674L14.434 8.08046C14.6138 8.25974 14.8482 8.34891 15.0826 8.34891C15.3174 8.34891 15.5522 8.25964 15.7315 8.08046C16.0895 7.72241 16.0895 7.14212 15.7314 6.78346Z" fill="#9898985E"/>
<path d="M8.31848 3.75789C8.14233 3.58184 7.85711 3.58184 7.68148 3.75789L2.34836 9.08943C2.26417 9.1736 2.21643 9.28851 2.21643 9.40843V13.2971C2.21643 14.2095 2.9563 14.9494 3.86876 14.9494H6.50919V10.8602H9.49019V14.9494H12.1307C13.0431 14.9494 13.783 14.2095 13.783 13.2971V9.40843C13.783 9.28851 13.7356 9.1736 13.651 9.08943L8.31848 3.75789Z" fill="#9898985E"/>
</svg>
