<svg width="32" height="33" viewBox="0 0 32 33" fill="none" xmlns="http://www.w3.org/2000/svg">
<g clip-path="url(#clip0_75_184)">
<path d="M12 28.1667C11.7348 28.1667 11.4805 28.0613 11.2929 27.8738C11.1054 27.6862 11 27.4319 11 27.1667C11 26.9015 11.1054 26.6471 11.2929 26.4596C11.4805 26.272 11.7348 26.1667 12 26.1667H23.7334C24.21 26.1987 24.6801 26.0418 25.0419 25.7299C25.4037 25.418 25.6282 24.9762 25.6667 24.5V8.50001C25.6282 8.02386 25.4037 7.58202 25.0419 7.27011C24.6801 6.9582 24.21 6.80129 23.7334 6.83334H12C11.7348 6.83334 11.4805 6.72798 11.2929 6.54045C11.1054 6.35291 11 6.09856 11 5.83334C11 5.56812 11.1054 5.31377 11.2929 5.12623C11.4805 4.9387 11.7348 4.83334 12 4.83334H23.7334C24.7411 4.79842 25.7214 5.16501 26.459 5.85256C27.1965 6.5401 27.6309 7.49233 27.6667 8.50001V24.5C27.6309 25.5077 27.1965 26.4599 26.459 27.1475C25.7214 27.835 24.7411 28.2016 23.7334 28.1667H12ZM13.96 22.54C13.8671 22.4471 13.7934 22.3369 13.7431 22.2155C13.6928 22.0941 13.6669 21.964 13.6669 21.8327C13.6669 21.7013 13.6928 21.5712 13.7431 21.4498C13.7934 21.3285 13.8671 21.2182 13.96 21.1253L17.5854 17.5H5.33337C5.06816 17.5 4.8138 17.3946 4.62627 17.2071C4.43873 17.0196 4.33337 16.7652 4.33337 16.5C4.33337 16.2348 4.43873 15.9804 4.62627 15.7929C4.8138 15.6054 5.06816 15.5 5.33337 15.5H17.5867L13.96 11.8733C13.7834 11.6838 13.6872 11.433 13.6918 11.174C13.6964 10.9149 13.8013 10.6677 13.9845 10.4845C14.1678 10.3013 14.4149 10.1963 14.674 10.1918C14.9331 10.1872 15.1838 10.2834 15.3734 10.46L20.7067 15.7933L20.724 15.8107L20.7307 15.8187L20.74 15.8293L20.7494 15.84V15.8467L20.76 15.8587L20.7707 15.872L20.7814 15.8867L20.792 15.9013L20.8027 15.916L20.812 15.9307V15.9373L20.82 15.9507V15.96V15.9707V15.9827V15.9907L20.828 16.0053L20.8387 16.0253C20.9335 16.2172 20.9643 16.4344 20.9267 16.6451C20.889 16.8558 20.7848 17.0489 20.6294 17.196L15.3734 22.54C15.1859 22.7273 14.9317 22.8325 14.6667 22.8325C14.4017 22.8325 14.1475 22.7273 13.96 22.54Z" fill="white"/>
</g>
<defs>
<clipPath id="clip0_75_184">
<rect width="32" height="32" fill="white" transform="translate(0 0.5)"/>
</clipPath>
</defs>
</svg>
