<svg width="20" height="21" viewBox="0 0 20 21" fill="none" xmlns="http://www.w3.org/2000/svg">
<path fill-rule="evenodd" clip-rule="evenodd" d="M0.416687 10.5C0.416687 5.20723 4.70729 0.916626 10 0.916626C15.2927 0.916626 19.5834 5.20723 19.5834 10.5C19.5834 15.7926 15.2927 20.0833 10 20.0833C4.70729 20.0833 0.416687 15.7926 0.416687 10.5ZM10 7.62496C9.71396 7.62496 9.45799 7.74912 9.28098 7.94966C8.93081 8.34648 8.32514 8.38424 7.92836 8.034C7.53155 7.68376 7.49379 7.07815 7.84402 6.68134C8.36942 6.08607 9.14116 5.70829 10 5.70829C11.5879 5.70829 12.875 6.99548 12.875 8.58329C12.875 9.83602 12.0745 10.8997 10.9584 11.2944V11.4583C10.9584 11.9876 10.5293 12.4166 10 12.4166C9.47073 12.4166 9.04169 11.9876 9.04169 11.4583V10.9791C9.04169 10.1438 9.70035 9.64896 10.2379 9.51211C10.6526 9.4065 10.9584 9.0294 10.9584 8.58329C10.9584 8.05402 10.5293 7.62496 10 7.62496ZM10 13.375C9.47073 13.375 9.04169 13.804 9.04169 14.3333C9.04169 14.8626 9.47073 15.2916 10 15.2916H10.0096C10.5389 15.2916 10.9679 14.8626 10.9679 14.3333C10.9679 13.804 10.5389 13.375 10.0096 13.375H10Z" fill="#989898" fill-opacity="0.37"/>
</svg>
